<svg xmlns="http://www.w3.org/2000/svg" width="640" height="400" viewBox="0 0 640 400" font-family="sans-serif"><rect width="640" height="400" fill="#ffffff"/><line x1="60.0" y1="356.0" x2="620.0" y2="356.0" stroke="#e6e6e6" stroke-width="1"/><text x="54.0" y="356.0" font-size="11" fill="#333" text-anchor="end" dominant-baseline="middle">0</text><line x1="60.0" y1="278.0" x2="620.0" y2="278.0" stroke="#e6e6e6" stroke-width="1"/><text x="54.0" y="278.0" font-size="11" fill="#333" text-anchor="end" dominant-baseline="middle">5</text><line x1="60.0" y1="200.0" x2="620.0" y2="200.0" stroke="#e6e6e6" stroke-width="1"/><text x="54.0" y="200.0" font-size="11" fill="#333" text-anchor="end" dominant-baseline="middle">10</text><line x1="60.0" y1="122.0" x2="620.0" y2="122.0" stroke="#e6e6e6" stroke-width="1"/><text x="54.0" y="122.0" font-size="11" fill="#333" text-anchor="end" dominant-baseline="middle">15</text><line x1="60.0" y1="44.0" x2="620.0" y2="44.0" stroke="#e6e6e6" stroke-width="1"/><text x="54.0" y="44.0" font-size="11" fill="#333" text-anchor="end" dominant-baseline="middle">20</text><line x1="155.9" y1="44.0" x2="155.9" y2="356.0" stroke="#e6e6e6" stroke-width="1"/><text x="155.9" y="372.0" font-size="11" fill="#333" text-anchor="middle">10</text><line x1="282.9" y1="44.0" x2="282.9" y2="356.0" stroke="#e6e6e6" stroke-width="1"/><text x="282.9" y="372.0" font-size="11" fill="#333" text-anchor="middle">20</text><line x1="409.8" y1="44.0" x2="409.8" y2="356.0" stroke="#e6e6e6" stroke-width="1"/><text x="409.8" y="372.0" font-size="11" fill="#333" text-anchor="middle">30</text><line x1="536.8" y1="44.0" x2="536.8" y2="356.0" stroke="#e6e6e6" stroke-width="1"/><text x="536.8" y="372.0" font-size="11" fill="#333" text-anchor="middle">40</text><rect x="60" y="44" width="560" height="312" fill="none" stroke="#333" stroke-width="1"/><rect x="39.64" y="44.00" width="39.73" height="312.00" fill="#4e79a7"/><rect x="101.86" y="44.00" width="39.73" height="312.00" fill="#4e79a7"/><rect x="164.08" y="44.00" width="39.73" height="312.00" fill="#4e79a7"/><rect x="226.30" y="44.00" width="39.73" height="312.00" fill="#4e79a7"/><rect x="288.53" y="44.00" width="39.73" height="312.00" fill="#4e79a7"/><rect x="350.75" y="44.00" width="39.73" height="312.00" fill="#4e79a7"/><rect x="412.97" y="44.00" width="39.73" height="312.00" fill="#4e79a7"/><rect x="475.19" y="44.00" width="39.73" height="312.00" fill="#4e79a7"/><rect x="537.41" y="44.00" width="39.73" height="312.00" fill="#4e79a7"/><rect x="599.64" y="44.00" width="39.73" height="312.00" fill="#4e79a7"/><text x="340.0" y="24" font-size="15" font-weight="bold" fill="#111" text-anchor="middle">sample distribution</text></svg>