<svg xmlns="http://www.w3.org/2000/svg" width="640" height="400" viewBox="0 0 640 400" font-family="sans-serif"><rect width="640" height="400" fill="#ffffff"/><line x1="72.0" y1="356.0" x2="620.0" y2="356.0" stroke="#e6e6e6" stroke-width="1"/><text x="66.0" y="356.0" font-size="11" fill="#333" text-anchor="end" dominant-baseline="middle">0</text><line x1="72.0" y1="317.0" x2="620.0" y2="317.0" stroke="#e6e6e6" stroke-width="1"/><text x="66.0" y="317.0" font-size="11" fill="#333" text-anchor="end" dominant-baseline="middle">1</text><line x1="72.0" y1="278.0" x2="620.0" y2="278.0" stroke="#e6e6e6" stroke-width="1"/><text x="66.0" y="278.0" font-size="11" fill="#333" text-anchor="end" dominant-baseline="middle">2</text><line x1="72.0" y1="239.0" x2="620.0" y2="239.0" stroke="#e6e6e6" stroke-width="1"/><text x="66.0" y="239.0" font-size="11" fill="#333" text-anchor="end" dominant-baseline="middle">3</text><line x1="72.0" y1="200.0" x2="620.0" y2="200.0" stroke="#e6e6e6" stroke-width="1"/><text x="66.0" y="200.0" font-size="11" fill="#333" text-anchor="end" dominant-baseline="middle">4</text><line x1="72.0" y1="161.0" x2="620.0" y2="161.0" stroke="#e6e6e6" stroke-width="1"/><text x="66.0" y="161.0" font-size="11" fill="#333" text-anchor="end" dominant-baseline="middle">5</text><line x1="72.0" y1="122.0" x2="620.0" y2="122.0" stroke="#e6e6e6" stroke-width="1"/><text x="66.0" y="122.0" font-size="11" fill="#333" text-anchor="end" dominant-baseline="middle">6</text><line x1="72.0" y1="83.0" x2="620.0" y2="83.0" stroke="#e6e6e6" stroke-width="1"/><text x="66.0" y="83.0" font-size="11" fill="#333" text-anchor="end" dominant-baseline="middle">7</text><line x1="72.0" y1="44.0" x2="620.0" y2="44.0" stroke="#e6e6e6" stroke-width="1"/><text x="66.0" y="44.0" font-size="11" fill="#333" text-anchor="end" dominant-baseline="middle">8</text><text x="72.0" y="372.0" font-size="11" fill="#333" text-anchor="middle">apple</text><text x="254.7" y="372.0" font-size="11" fill="#333" text-anchor="middle">pear</text><text x="437.3" y="372.0" font-size="11" fill="#333" text-anchor="middle">plum</text><text x="620.0" y="372.0" font-size="11" fill="#333" text-anchor="middle">fig</text><rect x="72" y="44" width="548" height="312" fill="none" stroke="#333" stroke-width="1"/><rect x="28.16" y="44.00" width="86.68" height="312.00" fill="#59a14f"/><rect x="210.83" y="161.00" width="86.68" height="195.00" fill="#59a14f"/><rect x="393.49" y="239.00" width="86.68" height="117.00" fill="#59a14f"/><rect x="576.16" y="122.00" width="86.68" height="234.00" fill="#59a14f"/><text x="346.0" y="24" font-size="15" font-weight="bold" fill="#111" text-anchor="middle">fruit counts</text><text x="16" y="200.0" font-size="12" fill="#111" text-anchor="middle" transform="rotate(-90 16 200.0)">count</text></svg>